<svg width="22" height="23" viewBox="0 0 22 23" fill="none" xmlns="http://www.w3.org/2000/svg">
<path d="M22 11.0472C22 4.94599 17.0751 0 11 0C4.92486 0 0 4.94599 0 11.0472C0 16.5611 4.02252 21.1314 9.28125 21.9602V14.2405H6.48828V11.0472H9.28125V8.61335C9.28125 5.84465 10.9235 4.31531 13.4361 4.31531C14.6392 4.31531 15.8984 4.53107 15.8984 4.53107V7.24972H14.5114C13.145 7.24972 12.7188 8.10134 12.7188 8.97584V11.0472H15.7695L15.2818 14.2405H12.7188V21.9602C17.9775 21.1314 22 16.5611 22 11.0472Z" fill="#1877F2"/>
<path d="M15.2818 14.2405L15.7695 11.0472H12.7188V8.97584C12.7188 8.10221 13.145 7.24972 14.5114 7.24972H15.8984V4.53107C15.8984 4.53107 14.6397 4.31531 13.4361 4.31531C10.9235 4.31531 9.28125 5.84465 9.28125 8.61335V11.0472H6.48828V14.2405H9.28125V21.9602C10.4202 22.1391 11.5798 22.1391 12.7188 21.9602V14.2405H15.2818Z" fill="white"/>
</svg>
