<svg width="19" height="15" viewBox="0 0 19 15" fill="none" xmlns="http://www.w3.org/2000/svg">
<path d="M18.3129 13.9417L13.7082 10.2141C14.963 8.97176 15.58 7.38649 15.4315 5.78623C15.2829 4.18596 14.3803 2.69312 12.9103 1.6165C11.4402 0.539881 9.51522 -0.0381557 7.53347 0.00195626C5.55171 0.0420682 3.66482 0.69726 2.26307 1.83201C0.861321 2.96676 0.0519666 4.49425 0.00241656 6.09852C-0.0471335 7.7028 0.666912 9.26112 1.99686 10.4512C3.3268 11.6412 5.17089 12.3719 7.14769 12.4921C9.12449 12.6124 11.0828 12.1129 12.6174 11.0971L17.2221 14.8247C17.3676 14.9385 17.5624 15.0014 17.7647 15C17.967 14.9986 18.1604 14.9329 18.3035 14.8171C18.4465 14.7013 18.5276 14.5447 18.5294 14.3809C18.5311 14.2172 18.4534 14.0595 18.3129 13.9417ZM7.73894 11.2608C6.51836 11.2608 5.32518 10.9678 4.3103 10.4188C3.29541 9.86984 2.50441 9.08959 2.03731 8.1767C1.57021 7.26382 1.448 6.25932 1.68612 5.29021C1.92425 4.3211 2.51202 3.43092 3.3751 2.73223C4.23819 2.03354 5.33783 1.55773 6.53496 1.36496C7.7321 1.17219 8.97296 1.27113 10.1006 1.64925C11.2283 2.02738 12.1922 2.66772 12.8703 3.48929C13.5484 4.31086 13.9103 5.27676 13.9103 6.26486C13.9085 7.5894 13.2577 8.85926 12.1008 9.79585C10.9438 10.7324 9.37514 11.2593 7.73894 11.2608Z" fill="white"/>
</svg>
