<svg width="14" height="7" viewBox="0 0 14 7" fill="none" xmlns="http://www.w3.org/2000/svg">
<path d="M13.9973 3.49715C13.9924 3.19003 13.7805 2.89641 13.4074 2.67989L9.11822 0.169752C8.93089 0.0610268 8.67749 0 8.41336 0C8.14922 0 7.89582 0.0610268 7.7085 0.169752C7.61478 0.224019 7.54041 0.288583 7.48965 0.359719C7.43889 0.430854 7.41275 0.507154 7.41275 0.584217C7.41275 0.661279 7.43889 0.737579 7.48965 0.808715C7.54041 0.879851 7.61478 0.944414 7.7085 0.998682L10.9979 2.91339L0.999805 2.91339C0.73464 2.91339 0.480336 2.9749 0.292836 3.08437C0.105336 3.19385 0 3.34233 0 3.49715C0 3.65197 0.105336 3.80045 0.292836 3.90993C0.480336 4.0194 0.73464 4.0809 0.999805 4.0809H10.9979L7.7085 6.00145C7.52023 6.1106 7.41393 6.25895 7.413 6.41385C7.41206 6.56876 7.51655 6.71754 7.7035 6.82747C7.89044 6.93739 8.14451 6.99945 8.40982 7C8.67514 7.00055 8.92995 6.93953 9.11822 6.83038L13.4074 4.32024C13.7829 4.1023 13.995 3.80629 13.9973 3.49715Z" fill="#24BAEF"/>
</svg>
