<svg width="18" height="11" viewBox="0 0 18 11" fill="none" xmlns="http://www.w3.org/2000/svg">
<path d="M9 0.90101C11.403 0.90101 11.688 0.906011 12.6368 0.930182C13.6178 0.955187 14.628 1.07938 15.3428 1.47654C16.0643 1.87745 16.281 2.43339 16.326 2.98017C16.3695 3.50735 16.3785 3.66572 16.3785 5.00098C16.3785 6.33624 16.3695 6.4946 16.326 7.02179C16.2817 7.56398 16.053 8.13076 15.3428 8.52542C14.6213 8.92633 13.6215 9.04677 12.6368 9.07177C11.688 9.09595 11.403 9.10095 9 9.10095C6.597 9.10095 6.312 9.09595 5.36325 9.07177C4.395 9.04719 3.3615 8.91716 2.65725 8.52542C1.9395 8.12659 1.719 7.56523 1.674 7.02179C1.6305 6.4946 1.6215 6.33624 1.6215 5.00098C1.6215 3.66572 1.6305 3.50735 1.674 2.98017C1.71825 2.44006 1.94925 1.86995 2.65725 1.47654C3.37725 1.07646 4.3815 0.955187 5.36325 0.930182C6.312 0.906011 6.597 0.90101 9 0.90101ZM9 0C6.55575 0 6.249 0.00583447 5.289 0.0300059C3.89775 0.0654295 2.51625 0.280472 1.5105 0.839331C0.501 1.40027 0.11775 2.16626 0.054 2.93891C0.0105 3.47235 0 3.6428 0 5.00098C0 6.35916 0.0105 6.52961 0.054 7.06305C0.11775 7.83528 0.50625 8.60502 1.5105 9.16263C2.51925 9.72315 3.9 9.93653 5.289 9.97195C6.249 9.99612 6.55575 10.002 9 10.002C11.4443 10.002 11.751 9.99612 12.711 9.97195C14.1015 9.93653 15.4845 9.72107 16.4895 9.16263C17.4998 8.60127 17.8822 7.8357 17.946 7.06305C17.9895 6.52961 18 6.35916 18 5.00098C18 3.6428 17.9895 3.47235 17.946 2.93891C17.8822 2.16584 17.4945 1.39777 16.4895 0.839331C15.4823 0.279638 14.0978 0.0650127 12.711 0.0300059C11.751 0.00583447 11.4443 0 9 0Z" fill="white" fill-opacity="0.3"/>
<path d="M8.99999 2.43298C6.44775 2.43298 4.3785 3.58278 4.3785 5.00097C4.3785 6.41917 6.44775 7.56897 8.99999 7.56897C11.5522 7.56897 13.6215 6.41917 13.6215 5.00097C13.6215 3.58278 11.5522 2.43298 8.99999 2.43298ZM8.99999 6.66796C7.34324 6.66796 6 5.92157 6 5.00097C6 4.08038 7.34324 3.33398 8.99999 3.33398C10.6567 3.33398 12 4.08038 12 5.00097C12 5.92157 10.6567 6.66796 8.99999 6.66796Z" fill="white" fill-opacity="0.3"/>
<path d="M13.8045 2.93141C14.401 2.93141 14.8845 2.66273 14.8845 2.33129C14.8845 1.99985 14.401 1.73117 13.8045 1.73117C13.208 1.73117 12.7245 1.99985 12.7245 2.33129C12.7245 2.66273 13.208 2.93141 13.8045 2.93141Z" fill="white" fill-opacity="0.3"/>
</svg>
