<svg width="1171" height="1813" viewBox="0 0 1171 1813" fill="none" xmlns="http://www.w3.org/2000/svg">
<path d="M7 204.512C8.81563 204.512 10.2812 203.698 10.2812 202.689C10.2812 201.68 8.81563 200.866 7 200.866C5.18437 200.866 3.71875 201.68 3.71875 202.689C3.71875 203.698 5.18437 204.512 7 204.512ZM7 201.413C8.26875 201.413 9.29688 201.984 9.29688 202.689C9.29688 203.394 8.26875 203.965 7 203.965C5.73125 203.965 4.70312 203.394 4.70312 202.689C4.70312 201.984 5.73125 201.413 7 201.413Z" fill="#24BAEF"/>
<path d="M13.4531 206.506C11.6593 205.667 9.38434 205.205 6.99996 205.205C4.61559 205.205 2.34059 205.667 0.546838 206.506C0.349963 206.603 0.306213 206.773 0.481213 206.895C0.656213 207.004 0.962463 207.028 1.18121 206.931C2.79996 206.165 4.85621 205.752 6.99996 205.752C9.14371 205.752 11.2 206.165 12.7968 206.919C12.8843 206.968 12.9937 206.98 13.125 206.98C13.2562 206.98 13.4093 206.943 13.4968 206.882C13.6718 206.773 13.65 206.603 13.4531 206.506Z" fill="#24BAEF"/>
<path d="M222 206.445C217.669 206.445 215.525 204.148 215.437 204.05C215.372 203.978 215.372 203.88 215.437 203.807C215.525 203.71 217.669 201.425 222 201.425C226.331 201.425 228.475 203.71 228.562 203.807C228.628 203.88 228.628 203.978 228.562 204.05C228.475 204.148 226.331 206.445 222 206.445ZM216.444 203.929C216.925 204.379 218.806 205.898 222 205.898C225.194 205.898 227.075 204.379 227.556 203.929C227.075 203.479 225.194 201.96 222 201.96C218.806 201.96 216.925 203.479 216.444 203.929Z" fill="#24BAEF"/>
<path d="M222 204.962C220.972 204.962 220.141 204.5 220.141 203.929C220.141 203.358 220.972 202.896 222 202.896C223.028 202.896 223.859 203.358 223.859 203.929C223.859 204.5 223.028 204.962 222 204.962ZM222 203.443C221.519 203.443 221.125 203.662 221.125 203.929C221.125 204.196 221.519 204.415 222 204.415C222.481 204.415 222.875 204.196 222.875 203.929C222.875 203.662 222.481 203.443 222 203.443Z" fill="#24BAEF"/>
<path d="M407 204.512C408.816 204.512 410.281 203.698 410.281 202.689C410.281 201.68 408.816 200.866 407 200.866C405.184 200.866 403.719 201.68 403.719 202.689C403.719 203.698 405.184 204.512 407 204.512ZM407 201.413C408.269 201.413 409.297 201.984 409.297 202.689C409.297 203.394 408.269 203.965 407 203.965C405.731 203.965 404.703 203.394 404.703 202.689C404.703 201.984 405.731 201.413 407 201.413Z" fill="#24BAEF"/>
<path d="M413.453 206.506C411.659 205.667 409.384 205.205 407 205.205C404.616 205.205 402.341 205.667 400.547 206.506C400.35 206.603 400.306 206.773 400.481 206.895C400.656 207.004 400.962 207.028 401.181 206.931C402.8 206.165 404.856 205.752 407 205.752C409.144 205.752 411.2 206.165 412.797 206.919C412.884 206.968 412.994 206.98 413.125 206.98C413.256 206.98 413.409 206.943 413.497 206.882C413.672 206.773 413.65 206.603 413.453 206.506Z" fill="#24BAEF"/>
<path d="M622 206.445C617.669 206.445 615.525 204.148 615.437 204.05C615.372 203.978 615.372 203.88 615.437 203.807C615.525 203.71 617.669 201.425 622 201.425C626.331 201.425 628.475 203.71 628.562 203.807C628.628 203.88 628.628 203.978 628.562 204.05C628.475 204.148 626.331 206.445 622 206.445ZM616.444 203.929C616.925 204.379 618.806 205.898 622 205.898C625.194 205.898 627.075 204.379 627.556 203.929C627.075 203.479 625.194 201.96 622 201.96C618.806 201.96 616.925 203.479 616.444 203.929Z" fill="#24BAEF"/>
<path d="M622 204.962C620.972 204.962 620.141 204.5 620.141 203.929C620.141 203.358 620.972 202.896 622 202.896C623.028 202.896 623.859 203.358 623.859 203.929C623.859 204.5 623.028 204.962 622 204.962ZM622 203.443C621.519 203.443 621.125 203.662 621.125 203.929C621.125 204.196 621.519 204.415 622 204.415C622.481 204.415 622.875 204.196 622.875 203.929C622.875 203.662 622.481 203.443 622 203.443Z" fill="#24BAEF"/>
<path d="M807 204.512C808.816 204.512 810.281 203.698 810.281 202.689C810.281 201.68 808.816 200.866 807 200.866C805.184 200.866 803.719 201.68 803.719 202.689C803.719 203.698 805.184 204.512 807 204.512ZM807 201.413C808.269 201.413 809.297 201.984 809.297 202.689C809.297 203.394 808.269 203.965 807 203.965C805.731 203.965 804.703 203.394 804.703 202.689C804.703 201.984 805.731 201.413 807 201.413Z" fill="#24BAEF"/>
<path d="M813.453 206.506C811.659 205.667 809.384 205.205 807 205.205C804.616 205.205 802.341 205.667 800.547 206.506C800.35 206.603 800.306 206.773 800.481 206.895C800.656 207.004 800.962 207.028 801.181 206.931C802.8 206.165 804.856 205.752 807 205.752C809.144 205.752 811.2 206.165 812.797 206.919C812.884 206.968 812.994 206.98 813.125 206.98C813.256 206.98 813.409 206.943 813.497 206.882C813.672 206.773 813.65 206.603 813.453 206.506Z" fill="#24BAEF"/>
<path d="M1022 206.445C1017.67 206.445 1015.52 204.148 1015.44 204.05C1015.37 203.978 1015.37 203.88 1015.44 203.807C1015.52 203.71 1017.67 201.425 1022 201.425C1026.33 201.425 1028.47 203.71 1028.56 203.807C1028.63 203.88 1028.63 203.978 1028.56 204.05C1028.47 204.148 1026.33 206.445 1022 206.445ZM1016.44 203.929C1016.92 204.379 1018.81 205.898 1022 205.898C1025.19 205.898 1027.07 204.379 1027.56 203.929C1027.07 203.479 1025.19 201.96 1022 201.96C1018.81 201.96 1016.92 203.479 1016.44 203.929Z" fill="#24BAEF"/>
<path d="M1022 204.962C1020.97 204.962 1020.14 204.5 1020.14 203.929C1020.14 203.358 1020.97 202.896 1022 202.896C1023.03 202.896 1023.86 203.358 1023.86 203.929C1023.86 204.5 1023.03 204.962 1022 204.962ZM1022 203.443C1021.52 203.443 1021.12 203.662 1021.12 203.929C1021.12 204.196 1021.52 204.415 1022 204.415C1022.48 204.415 1022.88 204.196 1022.88 203.929C1022.88 203.662 1022.48 203.443 1022 203.443Z" fill="#24BAEF"/>
<rect x="1" y="1311.31" width="1170" height="1" fill="white" fill-opacity="0.1"/>
<path d="M1143.94 3.72684L1141.29 2.25627C1141.11 2.15207 1141 2.01076 1141 1.86342C1141 1.71608 1141.11 1.57477 1141.29 1.47057L1143.94 0L1144.65 0.392854L1142 1.86342L1144.65 3.33399L1143.94 3.72684Z" fill="#B9BDCC"/>
<rect x="1155" y="1432.31" width="1" height="18" fill="white" fill-opacity="0.1"/>
<path d="M1167.06 3.72684L1169.71 2.25627C1169.89 2.15207 1170 2.01076 1170 1.86342C1170 1.71608 1169.89 1.57477 1169.71 1.47057L1167.06 0L1166.35 0.392854L1169 1.86342L1166.35 3.33399L1167.06 3.72684Z" fill="#B9BDCC"/>
</svg>
