<svg width="40" height="88" viewBox="0 0 40 88" fill="none" xmlns="http://www.w3.org/2000/svg">
<rect y="47.5961" width="40" height="40" rx="3" fill="#24BAEF"/>
<path d="M20.2537 4.34395V1.84142C20.2537 1.0642 19.8312 0.75 18.7817 0.75H16.115C15.0655 0.75 14.6431 1.0642 14.6431 1.84142V4.33844C14.6431 5.12117 15.0655 5.42986 16.115 5.42986H18.7817C19.8312 5.43537 20.2537 5.12117 20.2537 4.34395Z" stroke="white" stroke-width="1.5" stroke-linecap="round" stroke-linejoin="round"/>
<path d="M20.2537 11.9232V9.69626C20.2537 8.81982 19.8312 8.46704 18.7817 8.46704H16.115C15.0655 8.46704 14.6431 8.81982 14.6431 9.69626V11.9232C14.6431 12.7996 15.0655 13.1524 16.115 13.1524H18.7817C19.8312 13.1524 20.2537 12.7996 20.2537 11.9232Z" stroke="white" stroke-width="1.5" stroke-linecap="round" stroke-linejoin="round"/>
<path d="M11.343 4.34395V1.84142C11.343 1.0642 10.9206 0.75 9.87106 0.75H7.20438C6.15487 0.75 5.73242 1.0642 5.73242 1.84142V4.33844C5.73242 5.12117 6.15487 5.42986 7.20438 5.42986H9.87106C10.9206 5.43537 11.343 5.12117 11.343 4.34395Z" stroke="white" stroke-width="1.5" stroke-linecap="round" stroke-linejoin="round"/>
<path d="M11.343 11.9232V9.69626C11.343 8.81982 10.9206 8.46704 9.87106 8.46704H7.20438C6.15487 8.46704 5.73242 8.81982 5.73242 9.69626V11.9232C5.73242 12.7996 6.15487 13.1524 7.20438 13.1524H9.87106C10.9206 13.1524 11.343 12.7996 11.343 11.9232Z" stroke="white" stroke-width="1.5" stroke-linecap="round" stroke-linejoin="round"/>
</svg>
