<svg width="18" height="9" viewBox="0 0 18 9" fill="none" xmlns="http://www.w3.org/2000/svg">
<path d="M16.1572 2.02304C16.1677 2.11097 16.1677 2.19932 16.1677 2.28809C16.1677 4.99987 12.4522 8.12673 5.66025 8.12673V8.12506C3.654 8.12673 1.689 7.8075 0 7.2053C0.29175 7.22489 0.585 7.23447 0.879 7.23489C2.5425 7.23572 4.158 6.92566 5.46525 6.35472C3.885 6.33805 2.499 5.76543 2.01525 4.92944C2.56875 4.98862 3.13875 4.97653 3.6825 4.89443C1.959 4.70106 0.72 3.85965 0.72 2.88279C0.72 2.87404 0.72 2.86528 0.72 2.85695C1.23375 3.01615 1.80825 3.10408 2.39625 3.11367C0.77325 2.51147 0.27225 1.31206 1.2525 0.374382C3.1275 1.6563 5.89425 2.43562 8.8635 2.51855C8.56575 1.80591 8.973 1.0591 9.9315 0.557751C11.4187 -0.219484 13.758 -0.179476 15.1567 0.646935C15.984 0.556501 16.7768 0.387718 17.502 0.148921C17.226 0.624014 16.6493 1.02743 15.8783 1.28414C16.611 1.23538 17.3258 1.12661 18 0.960746C17.5042 1.37291 16.8802 1.73256 16.1572 2.02304Z" fill="white"/>
</svg>
