<svg width="14" height="15" viewBox="0 0 14 15" fill="none" xmlns="http://www.w3.org/2000/svg">
<path d="M13.8971 15H12.3529V11.8481C12.3523 11.3581 12.1116 10.8883 11.6836 10.5419C11.2556 10.1954 10.6753 10.0005 10.07 10H3.82709C3.2218 10.0005 2.64147 10.1954 2.21346 10.5419C1.78545 10.8883 1.54473 11.3581 1.54412 11.8481V15H0V11.8481C0.0012259 11.0268 0.40483 10.2393 1.12228 9.65852C1.83974 9.07772 2.81246 8.75099 3.82709 8.75H10.07C11.0846 8.75099 12.0573 9.07772 12.7748 9.65852C13.4922 10.2393 13.8958 11.0268 13.8971 11.8481V15Z" fill="white"/>
<path d="M6.94853 7.5C6.03234 7.5 5.13672 7.28007 4.37493 6.86801C3.61314 6.45596 3.0194 5.87029 2.66879 5.18506C2.31818 4.49984 2.22644 3.74584 2.40519 3.01841C2.58393 2.29098 3.02511 1.6228 3.67296 1.09835C4.32081 0.573904 5.14621 0.216751 6.0448 0.0720569C6.94339 -0.0726377 7.8748 0.00162482 8.72125 0.285453C9.5677 0.569282 10.2912 1.04993 10.8002 1.66661C11.3092 2.2833 11.5809 3.00832 11.5809 3.75C11.5797 4.74426 11.0912 5.69751 10.2227 6.40056C9.35427 7.1036 8.17673 7.49901 6.94853 7.5ZM6.94853 1.25C6.33773 1.25 5.74066 1.39662 5.2328 1.67133C4.72494 1.94603 4.32911 2.33648 4.09537 2.79329C3.86163 3.25011 3.80047 3.75277 3.91963 4.23773C4.03879 4.72268 4.33292 5.16814 4.76482 5.51777C5.19671 5.8674 5.74699 6.1055 6.34604 6.20196C6.9451 6.29843 7.56604 6.24892 8.13035 6.0597C8.69465 5.87048 9.17696 5.55005 9.5163 5.13893C9.85564 4.7278 10.0368 4.24445 10.0368 3.75C10.0368 3.08696 9.7114 2.45108 9.13224 1.98223C8.55308 1.51339 7.76758 1.25 6.94853 1.25Z" fill="white"/>
</svg>
