<svg width="20" height="25" viewBox="0 0 20 25" fill="none" xmlns="http://www.w3.org/2000/svg">
<path fill-rule="evenodd" clip-rule="evenodd" d="M18.4945 20.6799C19.1995 19.5953 19.4623 19.0409 20 17.8238C16.0332 16.3053 15.4 10.6051 19.319 8.42379C18.1241 6.90533 16.4394 6.0256 14.8503 6.0256C13.7033 6.0256 12.9147 6.3269 12.2098 6.60408C11.6124 6.83305 11.0747 7.0379 10.4056 7.0379C9.68874 7.0379 9.05548 6.80895 8.38638 6.56792C7.65754 6.3028 6.89286 6.0256 5.93701 6.0256C4.15673 6.0256 2.25698 7.12227 1.05021 9.00226C-0.646428 11.6535 -0.347721 16.6186 2.38841 20.8607C3.36816 22.3791 4.68245 24.0784 6.39104 24.1025C7.10793 24.1145 7.57391 23.8976 8.08768 23.6686C8.67314 23.4035 9.30639 23.1142 10.4176 23.1142C11.5287 23.1022 12.1501 23.4035 12.7355 23.6686C13.2373 23.8976 13.6914 24.1145 14.3963 24.1025C16.1288 24.0784 17.5148 22.1984 18.4945 20.6799Z" fill="#B9BDCC"/>
<path fill-rule="evenodd" clip-rule="evenodd" d="M14.6006 0C14.7918 1.32564 14.2541 2.63924 13.5492 3.55513C12.7964 4.54333 11.4821 5.31459 10.2156 5.26638C9.98862 3.98895 10.5741 2.67536 11.291 1.79562C12.0915 0.831524 13.4416 0.0843587 14.6006 0Z" fill="#B9BDCC"/>
</svg>
