<svg width="19" height="19" viewBox="0 0 19 19" fill="none" xmlns="http://www.w3.org/2000/svg">
<path d="M18.6978 17.6595L13.9963 12.9379C15.2775 11.3642 15.9074 9.35623 15.7558 7.32922C15.6042 5.30222 14.6825 3.41129 13.1816 2.04757C11.6806 0.683849 9.7152 -0.0483305 7.6918 0.00247793C5.6684 0.0532864 3.74184 0.883195 2.31063 2.32054C0.879423 3.75789 0.0530588 5.69271 0.00246735 7.72479C-0.0481241 9.75688 0.680928 11.7308 2.03882 13.2381C3.39672 14.7455 5.27957 15.6711 7.29792 15.8234C9.31626 15.9757 11.3157 15.3431 12.8826 14.0564L17.584 18.778C17.7326 18.922 17.9315 19.0018 18.1381 19C18.3446 18.9982 18.5421 18.915 18.6882 18.7683C18.8342 18.6217 18.917 18.4233 18.9188 18.2159C18.9206 18.0085 18.8412 17.8086 18.6978 17.6595ZM7.90159 14.2636C6.65535 14.2636 5.4371 13.8925 4.40089 13.1971C3.36467 12.5018 2.55705 11.5135 2.08013 10.3572C1.60321 9.20084 1.47843 7.92847 1.72156 6.70093C1.96469 5.47339 2.56481 4.34583 3.44604 3.46082C4.32726 2.57581 5.45001 1.97312 6.67231 1.72895C7.8946 1.48477 9.16154 1.61009 10.3129 2.08905C11.4643 2.56801 12.4484 3.37911 13.1408 4.41976C13.8331 5.46042 14.2027 6.6839 14.2027 7.93549C14.2008 9.61323 13.5364 11.2217 12.3551 12.4081C11.1738 13.5944 9.57217 14.2617 7.90159 14.2636Z" fill="white"/>
</svg>
