<svg width="22" height="23" viewBox="0 0 22 23" fill="none" xmlns="http://www.w3.org/2000/svg">
<path d="M22 11.3012C22 10.5503 21.9382 9.79527 21.8062 9.05652H11.2227V13.3104H17.2834C17.0319 14.6824 16.2238 15.8961 15.0405 16.6673V19.4275H18.6563C20.7796 17.5035 22 14.6621 22 11.3012Z" fill="#4285F4"/>
<path d="M11.2223 22.0944C14.2485 22.0944 16.8006 21.1161 18.6601 19.4275L15.0442 16.6674C14.0382 17.3412 12.7395 17.7227 11.2264 17.7227C8.29912 17.7227 5.81712 15.7784 4.92657 13.1644H1.19531V16.0098C3.10011 19.7401 6.97979 22.0944 11.2223 22.0944Z" fill="#34A853"/>
<path d="M4.92072 13.1644C4.4507 11.7924 4.4507 10.3068 4.92072 8.93484V6.08942H1.19359C-0.397863 9.21086 -0.397863 12.8884 1.19359 16.0098L4.92072 13.1644Z" fill="#FBBC04"/>
<path d="M11.2223 4.37238C12.822 4.34803 14.3681 4.94065 15.5266 6.02849L18.7301 2.87458C16.7017 0.99928 14.0094 -0.0317283 11.2223 0.000744432C6.97978 0.000744432 3.10011 2.35502 1.19531 6.08938L4.92244 8.9348C5.80887 6.31669 8.295 4.37238 11.2223 4.37238Z" fill="#EA4335"/>
</svg>
