<svg width="10" height="9" viewBox="0 0 10 9" fill="none" xmlns="http://www.w3.org/2000/svg">
<path d="M10 4.01389C9.99652 3.66139 9.84511 3.32438 9.57857 3.07587L6.51429 0.194834C6.38046 0.0700441 6.19942 0 6.01071 0C5.82201 0 5.64097 0.0700441 5.50714 0.194834C5.44019 0.25712 5.38706 0.331224 5.35079 0.41287C5.31453 0.494517 5.29586 0.582091 5.29586 0.67054C5.29586 0.758989 5.31453 0.846563 5.35079 0.92821C5.38706 1.00986 5.44019 1.08396 5.50714 1.14625L7.85714 3.34388L0.714286 3.34388C0.524845 3.34388 0.343164 3.41447 0.20921 3.54012C0.075255 3.66577 0 3.83619 0 4.01389C0 4.19158 0.075255 4.362 0.20921 4.48765C0.343164 4.6133 0.524845 4.68389 0.714286 4.68389H7.85714L5.50714 6.88822C5.37264 7.0135 5.2967 7.18376 5.29603 7.36156C5.29536 7.53936 5.37002 7.71012 5.50357 7.83629C5.63713 7.96245 5.81864 8.03368 6.00819 8.03431C6.19773 8.03494 6.37978 7.96491 6.51429 7.83964L9.57857 4.9586C9.84685 4.70845 9.99841 4.36871 10 4.01389Z" fill="white"/>
</svg>
